<svg id="Layer_1" xmlns="http://www.w3.org/2000/svg" viewBox="0 0 164 24"><style>.st0{fill:#fff}.st1{fill:#0e5037}</style><title>ABD_logo_w</title><g id="P"><g id="Main-Page-_-iPhone-SE-Copy"><g id="Menu"><path id="Fill-1" class="st0" d="M5 0L0 24h164V0z"/><g id="ABD-Logo"><g id="Group-27"><path id="Fill-3" class="st1" d="M43.6 10.3h3.5c1.3 0 2.5-.6 2.5-2 0-.8-.7-1.1-1.9-1.1h-3.4l-.7 3.1zm-1.4 6.3h3.6c1.4.1 2.6-.9 2.8-2.2v-.3c0-.9-.8-1.3-1.8-1.3h-3.7l-.9 3.8zm-.4-11.9h7c2.9 0 3.6 1.5 3.6 2.8.1 1.6-.9 3.1-2.4 3.8 1 .3 1.6 1.3 1.6 2.4 0 1.2-.5 5.3-6.7 5.3h-6.1l3-14.3z"/><path id="Fill-5" class="st1" d="M57.2 16.6h2.9c3 0 4.5-4 4.5-6.7 0-2.4-1.5-2.7-2.5-2.7h-2.9l-2 9.4zm-.4-11.9h6.3c3.6 0 4.6 2.4 4.6 4.7 0 3.3-2.1 9.6-7.7 9.6h-6.2l3-14.3z"/><path id="Fill-7" class="st1" d="M81.7 14.1c-2.2.1-3.4 1.2-3.4 2.6 0 1 .9 1.5 1.9 1.5 1.9 0 4-.9 4.4-3.1l.3-1.6c-1 .4-2.1.6-3.2.6zm-3.3-2.4c.7-2.5 2.7-3.4 5-3.4 1.8 0 3.2.6 3.2 2.4 0 .3 0 .6-.1.9l-1.2 5.7c0 .2-.1.4-.1.5 0 .3.1.5.4.5.3 0 .5-.1.8-.2l-.2 1c-.3.1-.7.2-1 .2-.8 0-1.2-.2-1.2-1.1v-.5c-1.1 1.1-2.6 1.7-4.2 1.7s-2.9-.8-2.9-2.3c0-1.8 1.2-3.4 4.4-3.9l2.4-.3c1.4-.2 1.7-.9 1.7-1.9s-.6-1.6-2.2-1.6c-1.6-.2-3.1.8-3.5 2.4l-1.3-.1z"/><path id="Fill-9" class="st1" d="M91 10.5c.7-1.5 2.2-2.3 3.9-2.2l-.3 1.3c-2.7 0-3.8 2-4.3 4.3l-1 5.1H88l2.2-10.5h1.2l-.4 2z"/><path id="Fill-11" class="st1" d="M102.8 11.9c.1-1.3-.9-2.4-2.2-2.5h-.3c-3.1 0-4.6 3.6-4.6 5.8 0 1.6.7 3 2.7 3 1.7 0 3.3-1.2 3.8-2.8h1.3c-.7 2.3-2.9 3.9-5.3 3.9-2.7 0-3.8-1.6-3.8-3.8 0-3.5 2.4-7.3 6.1-7.3 2.4 0 3.5 1.1 3.5 3.6l-1.2.1z"/><path id="Fill-13" class="st1" d="M108.2 10c1-1 2.3-1.7 3.7-1.7 1.9 0 3 .9 3 2.7 0 .4 0 .8-.1 1.2l-1.4 6.8h-1.2l1.4-6.8c.1-.3.1-.7.1-1 0-1.2-.7-1.8-2.2-1.8-2.2 0-3.5 1.9-4 3.9l-1.2 5.7h-1.2l3.1-14.5h1.2l-1.2 5.5z"/><path id="Fill-15" class="st1" d="M119.4 6.3l.4-1.8h1.2l-.4 1.8h-1.2zM117.9 19h-1.2l2.2-10.5h1.2L117.9 19z"/><path id="Fill-17" class="st1" d="M125 19.1c-.5.1-1 .2-1.4.2-1 0-1.5-.3-1.5-1.3 0-.3 0-.5.1-.8l1.6-7.6h-1.5l.2-1h1.5l.6-2.9h1.2l-.6 2.9h1.9l-.2 1H125l-1.5 7.2c-.1.3-.1.6-.1.9 0 .4.2.6.9.6.3 0 .7-.1 1-.1l-.3.9z"/><path id="Fill-19" class="st1" d="M135.9 13.1c.1-.3.1-.7.1-1 .1-1.3-.8-2.5-2.2-2.7h-.5c-2.1 0-3.6 1.7-4.3 3.7h6.9zm-7 1c-.1.4-.1.8-.1 1.2 0 1.7.9 2.9 2.7 2.9 1.6 0 3-.9 3.7-2.4h1.3c-.9 2.1-2.9 3.5-5.2 3.5-2.7 0-3.8-1.5-3.8-3.7 0-3.7 2.6-7.3 6.1-7.3 2.3 0 3.6 1.3 3.6 3.8 0 .7-.1 1.3-.2 2h-8.1z"/><path id="Fill-21" class="st1" d="M147.2 11.9c.1-1.3-.9-2.4-2.2-2.5h-.3c-3.1 0-4.6 3.6-4.6 5.8 0 1.6.7 3 2.7 3 1.7 0 3.3-1.2 3.8-2.8h1.3c-.7 2.3-2.9 3.9-5.3 3.9-2.7 0-3.8-1.6-3.8-3.8 0-3.5 2.4-7.3 6.1-7.3 2.4 0 3.5 1.1 3.5 3.6l-1.2.1z"/><path id="Fill-23" class="st1" d="M153 19.1c-.5.1-1 .2-1.4.2-1 0-1.5-.3-1.5-1.3 0-.3 0-.5.1-.8l1.6-7.6h-1.5l.2-1h1.5l.6-2.9h1.2l-.6 2.9h1.9l-.2 1H153l-1.5 7.2c-.1.3-.1.6-.1.9 0 .4.2.6.9.6.3 0 .7-.1 1-.1l-.3.9z"/><path id="Fill-25" class="st1" d="M162.7 11.6v-.4c0-1.2-.9-1.8-2.3-1.8s-2.8.8-2.8 2.1c0 1 1.2 1.3 2.5 1.6 1.5.4 3.2.9 3.2 2.5 0 2.4-2.3 3.7-4.9 3.7-2.2 0-3.2-1.2-3.2-2.9v-.6h1.2c0 1.8.8 2.5 2.6 2.5s3-1 3-2.3c0-.9-.8-1.4-2.7-1.7-2.2-.4-3-1.2-3-2.3 0-2.1 1.8-3.7 4.3-3.7 2.1 0 3.3.8 3.3 2.8v.5h-1.2z"/><path id="Fill-2" class="st1" d="M29.6 13.6h3.8L32.6 8l-3 5.6zm5.5-8.9l2 14.3h-3.2l-.3-3h-5.3l-1.6 3h-3.1l8-14.3h3.5z"/></g></g></g></g></g></svg>