<?xml version="1.0" encoding="UTF-8"?>
<svg width="200px" height="200px" viewBox="0 0 200 200" version="1.1" xmlns="http://www.w3.org/2000/svg" xmlns:xlink="http://www.w3.org/1999/xlink">
    <!-- Generator: Sketch 40.3 (33839) - http://www.bohemiancoding.com/sketch -->
    <title>gfx_logo</title>
    <desc>Created with Sketch.</desc>
    <defs></defs>
    <g id="Page-1" stroke="none" stroke-width="1" fill="none" fill-rule="evenodd">
        <g id="gfx_logo" fill="#000000">
            <g id="BLANK_logotype-icon">
                <g id="Calque_1">
                    <g id="Group">
                        <path d="M191.356784,60.8040201 C186.331658,48.9447236 179.19598,38.2914573 170.050251,29.1457286 C160.904523,20 150.251256,12.8643216 138.39196,7.83919598 C126.130653,2.61306533 113.065327,0 99.5979899,0 C86.1306533,0 73.1658291,2.61306533 60.8040201,7.83919598 C48.9447236,12.8643216 38.2914573,20 29.1457286,29.1457286 C20,38.2914573 12.8643216,48.9447236 7.83919598,60.8040201 C2.61306533,73.1658291 0,86.1306533 0,99.5979899 C0,113.065327 2.61306533,126.130653 7.83919598,138.39196 C12.8643216,150.251256 20,160.904523 29.1457286,170.050251 C38.2914573,179.19598 48.9447236,186.331658 60.8040201,191.356784 C73.0653266,196.582915 86.1306533,199.19598 99.5979899,199.19598 C113.065327,199.19598 126.130653,196.582915 138.39196,191.356784 C150.251256,186.331658 160.904523,179.19598 170.050251,170.050251 C179.19598,160.904523 186.331658,150.251256 191.356784,138.39196 C196.582915,126.130653 199.19598,113.065327 199.19598,99.5979899 C199.19598,86.1306533 196.582915,73.1658291 191.356784,60.8040201 L191.356784,60.8040201 Z M186.934673,136.482412 C182.110553,147.738693 175.276382,157.889447 166.633166,166.633166 C157.889447,175.376884 147.738693,182.211055 136.482412,186.934673 C124.824121,191.859296 112.361809,194.371859 99.5979899,194.371859 C86.8341709,194.371859 74.3718593,191.859296 62.7135678,186.934673 C51.4572864,182.110553 41.3065327,175.276382 32.5628141,166.633166 C23.8190955,157.889447 16.9849246,147.738693 12.2613065,136.482412 C7.33668342,124.824121 4.8241206,112.361809 4.8241206,99.5979899 C4.8241206,86.8341709 7.33668342,74.3718593 12.2613065,62.7135678 C17.0854271,51.4572864 23.919598,41.3065327 32.5628141,32.5628141 C41.3065327,23.8190955 51.4572864,16.9849246 62.7135678,12.2613065 C74.3718593,7.33668342 86.8341709,4.8241206 99.5979899,4.8241206 C112.361809,4.8241206 124.824121,7.33668342 136.482412,12.2613065 C147.738693,17.0854271 157.889447,23.919598 166.633166,32.5628141 C175.376884,41.3065327 182.211055,51.4572864 186.934673,62.7135678 C191.859296,74.3718593 194.371859,86.8341709 194.371859,99.5979899 C194.371859,112.361809 191.859296,124.824121 186.934673,136.482412 L186.934673,136.482412 Z" id="Shape"></path>
                        <path d="M78.1909548,77.2864322 C71.758794,77.2864322 66.1306533,81.0050251 63.4170854,86.4321608 C60.7035176,82.8140704 56.281407,80.4020101 51.3567839,80.4020101 C43.0150754,80.4020101 36.281407,87.1356784 36.281407,95.4773869 L36.281407,115.376884 L36.281407,115.376884 L36.281407,120.201005 L94.6733668,120.201005 L94.6733668,117.788945 L94.6733668,117.788945 L94.6733668,93.7688442 C94.6733668,84.6231156 87.2361809,77.2864322 78.1909548,77.2864322 L78.1909548,77.2864322 Z M41.1055276,95.4773869 C41.1055276,89.8492462 45.7286432,85.2261307 51.3567839,85.2261307 C56.9849246,85.2261307 61.6080402,89.8492462 61.6080402,95.4773869 L61.6080402,115.376884 L41.1055276,115.376884 L41.1055276,95.4773869 L41.1055276,95.4773869 Z M89.8492462,115.477387 L66.4321608,115.477387 L66.4321608,93.7688442 C66.4321608,87.3366834 71.6582915,82.1105528 78.0904523,82.1105528 C84.5226131,82.1105528 89.7487437,87.3366834 89.7487437,93.7688442 L89.7487437,115.477387 L89.8492462,115.477387 Z" id="Shape"></path>
                        <path d="M146.934673,76.080402 L138.291457,57.3869347 L134.773869,60.9045226 L143.417085,79.5979899 L124.824121,98.1909548 L106.130653,89.5477387 L102.613065,93.0653266 L121.306533,101.708543 L125.829146,103.819095 L161.809045,120.40201 L162.01005,120.201005 L165.326633,116.884422 L165.527638,116.683417 L148.944724,80.7035176 L146.934673,76.080402 L146.934673,76.080402 Z M159.19598,113.969849 L129.346734,100.301508 L145.527638,84.120603 L159.19598,113.969849 L159.19598,113.969849 Z" id="Shape"></path>
                    </g>
                </g>
            </g>
        </g>
    </g>
</svg>