<?xml version="1.0" encoding="utf-8"?>
<!-- Generator: Adobe Illustrator 15.1.0, SVG Export Plug-In . SVG Version: 6.00 Build 0)  -->
<!DOCTYPE svg PUBLIC "-//W3C//DTD SVG 1.1//EN" "http://www.w3.org/Graphics/SVG/1.1/DTD/svg11.dtd">
<svg version="1.1" id="Layer_1" xmlns="http://www.w3.org/2000/svg" xmlns:xlink="http://www.w3.org/1999/xlink" x="0px" y="0px"
	 width="102px" height="64px" viewBox="0 0 102 64" enable-background="new 0 0 102 64" xml:space="preserve">
<path fill="#00263E" d="M52.631,12.535c-9.247,0-16.746,7.363-16.746,16.449c0,9.086,7.499,16.45,16.746,16.45
	s16.746-7.363,16.746-16.45C69.377,19.898,61.878,12.535,52.631,12.535 M52.631,36.775c-3.845,0-6.959-3.489-6.959-7.792
	c0-4.303,3.114-7.792,6.959-7.792c3.846,0,6.96,3.489,6.96,7.792C59.591,33.286,56.477,36.775,52.631,36.775"/>
<rect fill="#00263E" width="10" height="9.09"/>
<polygon fill="#00263E" points="10,45 0,45 0,18.595 10,8.855 "/>
<polygon fill="#00263E" points="34.58,12.968 23.706,12.968 13.267,27.253 13.267,29.417 25.011,45 36.32,45 23.706,28.118 "/>
<polygon fill="#00263E" points="82.313,45 74,45 74,12.535 93.25,27.253 93.25,12.968 102,12.968 102,45.866 82.313,30.715 "/>
<path fill="#9D9D9C" d="M6.684,48.691h1.753v12.347H6.816v-1.153c-0.629,0.889-1.577,1.334-2.845,1.334
	c-1.136,0-2.082-0.404-2.837-1.211c-0.755-0.807-1.133-1.808-1.133-3.003c-0.022-1.187,0.352-2.193,1.125-3.021
	c0.771-0.829,1.72-1.231,2.845-1.211c1.168,0,2.073,0.392,2.712,1.169V48.691z M6.005,58.946c0.474-0.461,0.712-1.108,0.712-1.941
	c0-0.834-0.24-1.485-0.72-1.952c-0.479-0.467-1.056-0.699-1.728-0.699c-0.706,0-1.299,0.246-1.779,0.74
	c-0.479,0.494-0.719,1.125-0.719,1.894c0,0.77,0.237,1.403,0.711,1.902c0.474,0.498,1.069,0.749,1.787,0.749
	C4.952,59.639,5.531,59.407,6.005,58.946"/>
<path fill="#9D9D9C" d="M18.326,57.564h-6.054c0.11,0.657,0.405,1.176,0.885,1.555s1.067,0.567,1.762,0.567
	c0.86,0,1.648-0.316,2.365-0.954l0.827,1.186c-0.916,0.867-1.996,1.301-3.242,1.301c-1.235,0-2.272-0.404-3.11-1.211
	s-1.257-1.808-1.257-3.003c-0.022-1.165,0.386-2.166,1.224-3.006c0.838-0.839,1.831-1.247,2.978-1.227
	c1.069,0,1.963,0.354,2.679,1.062c0.717,0.71,1.076,1.59,1.076,2.644C18.458,56.797,18.414,57.158,18.326,57.564 M12.305,56.213
	h4.417c-0.011-0.603-0.215-1.082-0.612-1.439c-0.397-0.356-0.888-0.535-1.472-0.535c-0.574,0-1.073,0.179-1.497,0.535
	C12.715,55.131,12.437,55.61,12.305,56.213"/>
<polygon fill="#9D9D9C" points="25.825,52.954 27.678,52.954 23.757,61.219 23.162,61.219 19.225,52.954 21.078,52.954 
	23.46,58.305 "/>
<path fill="#9D9D9C" d="M36.183,57.564h-6.054c0.11,0.657,0.406,1.176,0.885,1.555s1.067,0.567,1.762,0.567
	c0.86,0,1.648-0.316,2.365-0.954l0.828,1.186c-0.916,0.867-1.996,1.301-3.242,1.301c-1.235,0-2.272-0.404-3.11-1.211
	s-1.257-1.808-1.257-3.003c-0.022-1.165,0.386-2.166,1.224-3.006c0.838-0.839,1.831-1.247,2.978-1.227
	c1.07,0,1.963,0.354,2.68,1.062c0.717,0.71,1.075,1.59,1.075,2.644C36.315,56.797,36.271,57.158,36.183,57.564 M30.162,56.213h4.417
	c-0.011-0.603-0.215-1.082-0.612-1.439c-0.397-0.356-0.888-0.535-1.472-0.535c-0.574,0-1.073,0.179-1.497,0.535
	C30.573,55.131,30.294,55.61,30.162,56.213"/>
<rect x="38.431" y="48.691" fill="#9D9D9C" width="1.737" height="12.347"/>
<path fill="#9D9D9C" d="M42.262,56.987c-0.022-1.153,0.394-2.148,1.249-2.988c0.854-0.839,1.866-1.247,3.035-1.227
	c1.18-0.021,2.2,0.392,3.061,1.234c0.859,0.846,1.279,1.839,1.257,2.98c0.022,1.152-0.397,2.151-1.257,2.997
	c-0.86,0.846-1.881,1.256-3.061,1.234c-1.169,0.021-2.181-0.393-3.035-1.244C42.656,59.125,42.24,58.13,42.262,56.987
	 M49.077,57.005c0-0.747-0.243-1.375-0.729-1.886c-0.484-0.512-1.08-0.766-1.786-0.766c-0.717,0-1.318,0.254-1.803,0.766
	c-0.485,0.511-0.728,1.139-0.728,1.886c0,0.746,0.24,1.368,0.72,1.867c0.48,0.5,1.078,0.749,1.794,0.749s1.318-0.253,1.803-0.757
	C48.834,58.359,49.077,57.739,49.077,57.005"/>
<path fill="#9D9D9C" d="M61.354,56.987c0,1.207-0.377,2.214-1.132,3.021c-0.756,0.807-1.707,1.211-2.854,1.211
	c-1.125,0-2.029-0.389-2.713-1.17V64h-1.737V52.954h1.621v1.137c0.617-0.879,1.561-1.318,2.829-1.318
	c1.146,0,2.098,0.404,2.854,1.211C60.978,54.79,61.354,55.792,61.354,56.987 M58.858,58.897c0.473-0.493,0.711-1.125,0.711-1.893
	c0-0.769-0.238-1.402-0.711-1.901c-0.475-0.5-1.064-0.75-1.771-0.75c-0.685,0-1.263,0.23-1.737,0.691s-0.711,1.108-0.711,1.942
	c0,0.845,0.236,1.498,0.711,1.959s1.053,0.692,1.737,0.692C57.794,59.639,58.384,59.392,58.858,58.897"/>
<path fill="#9D9D9C" d="M75.651,55.982v5.056h-1.752V56.23c0-0.571-0.152-1.026-0.455-1.366c-0.305-0.34-0.715-0.511-1.232-0.511
	c-0.529,0-0.96,0.167-1.291,0.503c-0.33,0.334-0.496,0.764-0.496,1.291v4.891h-1.736V56.23c0-0.56-0.154-1.013-0.463-1.358
	s-0.723-0.519-1.241-0.519c-0.529,0-0.96,0.173-1.29,0.519c-0.331,0.346-0.496,0.799-0.496,1.358v4.808h-1.737v-8.084h1.621v0.758
	c0.606-0.626,1.39-0.939,2.349-0.939c1.125,0,1.946,0.424,2.465,1.268c0.65-0.844,1.566-1.268,2.746-1.268
	c0.926,0,1.659,0.294,2.199,0.881C75.382,54.24,75.651,55.018,75.651,55.982"/>
<path fill="#9D9D9C" d="M85.461,57.564h-6.054c0.109,0.657,0.404,1.176,0.885,1.555c0.479,0.379,1.066,0.567,1.762,0.567
	c0.859,0,1.648-0.316,2.365-0.954l0.827,1.186c-0.915,0.867-1.997,1.301-3.242,1.301c-1.235,0-2.272-0.404-3.11-1.211
	s-1.257-1.808-1.257-3.003c-0.022-1.165,0.386-2.166,1.224-3.006c0.838-0.839,1.83-1.247,2.979-1.227
	c1.068,0,1.963,0.354,2.679,1.062c0.718,0.71,1.075,1.59,1.075,2.644C85.593,56.797,85.549,57.158,85.461,57.564 M79.44,56.213
	h4.416c-0.012-0.603-0.215-1.082-0.611-1.439c-0.397-0.356-0.889-0.535-1.473-0.535c-0.574,0-1.072,0.179-1.498,0.535
	C79.851,55.131,79.571,55.61,79.44,56.213"/>
<path fill="#9D9D9C" d="M94.788,55.982v5.056h-1.737v-4.825c0-0.56-0.163-1.013-0.487-1.356c-0.326-0.346-0.752-0.519-1.282-0.519
	c-0.54,0-0.983,0.175-1.331,0.526s-0.521,0.801-0.521,1.349v4.825h-1.736v-8.084h1.621v0.791c0.617-0.647,1.428-0.973,2.431-0.973
	c0.937,0,1.68,0.292,2.226,0.873C94.515,54.227,94.788,55.006,94.788,55.982"/>
<path fill="#9D9D9C" d="M102,59.572v1.466c-0.573,0.12-1.053,0.181-1.438,0.181c-0.949,0-1.686-0.237-2.209-0.708
	c-0.523-0.472-0.785-1.174-0.785-2.106v-3.952h-1.324v-1.498h1.324v-2.123h1.753v2.123h2.415v1.498H99.32v3.802
	c0,0.506,0.13,0.865,0.389,1.079s0.665,0.32,1.216,0.32C101.112,59.653,101.471,59.627,102,59.572"/>
</svg>
