<svg width="119" height="33" viewBox="0 0 119 33" fill="none" xmlns="http://www.w3.org/2000/svg">
<g clip-path="url(#clip0)">
<path d="M10.957 5.13789C10.8633 5.36953 10.7286 5.71402 10.553 6.17136C10.3832 6.62871 10.2017 7.10981 10.0201 7.61467C9.83864 8.11953 9.65713 8.60063 9.47562 9.05797C9.29411 9.51532 9.1653 9.85981 9.08918 10.0915C9.07161 10.1508 9.00721 10.3231 8.90181 10.6022C8.79642 10.8873 8.66761 11.22 8.51537 11.612C8.36314 12.004 8.19334 12.4197 8.01183 12.8652C7.83032 13.3107 7.66052 13.7324 7.50829 14.1184C7.35605 14.5105 7.22139 14.8431 7.10428 15.1282C6.98718 15.4133 6.92277 15.5796 6.90521 15.639H5.9274C5.83372 15.3836 5.68148 15.0094 5.48241 14.4986C5.28333 13.9937 5.07255 13.4592 4.85005 12.8949C4.62756 12.3307 4.41677 11.7961 4.2177 11.2912C4.01862 10.7864 3.86639 10.4062 3.77271 10.1508L1.92833 5.19728H1.81123V20.4856H0.0546875V0.172443H1.84051C1.95761 0.46348 2.12741 0.914884 2.35576 1.51478C2.58411 2.12061 2.82417 2.75614 3.07594 3.4273C3.32771 4.09847 3.56778 4.734 3.79613 5.33983C4.02448 5.94566 4.18842 6.39113 4.28796 6.68216L6.38996 12.3425H6.47778C6.57147 12.0693 6.71784 11.6714 6.91106 11.1487C7.10428 10.626 7.30921 10.0677 7.53171 9.48562C7.75421 8.90355 7.96499 8.34523 8.16407 7.80473C8.36314 7.27018 8.51537 6.86629 8.60906 6.59307C8.62662 6.53367 8.70274 6.33767 8.8257 6.011C8.94866 5.67838 9.10089 5.29231 9.27069 4.84091C9.44049 4.39545 9.62785 3.90841 9.83278 3.37979C10.0319 2.85711 10.2134 2.37007 10.3773 1.91866C10.5413 1.4732 10.6818 1.08713 10.8106 0.766396C10.9336 0.445662 11.0097 0.243718 11.0272 0.166504H12.8423V20.4797H11.0858V5.13789H10.957Z" fill="white"/>
<path d="M16.7109 20.4855V0.172363H25.0838V1.80573H18.4675V9.30735H24.2524V10.9407H18.4675V18.8462H25.0838V20.4796H16.7109V20.4855Z" fill="white"/>
<path d="M33.6484 1.81167V20.4855H31.8333V1.81167H28.2383V0.172363H37.2435V1.80573H33.6484V1.81167Z" fill="white"/>
<path d="M44.4443 0.172363C46.2067 0.172363 47.4655 0.647525 48.215 1.60379C48.9644 2.56005 49.3392 3.9499 49.3392 5.77927C49.3392 6.985 49.1342 8.04817 48.7185 8.97474C48.3087 9.90131 47.5651 10.5725 46.4877 11.0001C46.9854 12.5385 47.5065 14.1243 48.0393 15.7577C48.578 17.391 49.0933 18.965 49.5909 20.4855H47.7758L44.8424 11.3802H42.0495V20.4855H40.293V0.172363H44.4443ZM42.0554 1.81167V9.74688H44.2686C45.4982 9.74688 46.353 9.41426 46.8449 8.7431C47.3367 8.07193 47.5768 7.08003 47.5768 5.76146C47.5768 5.16156 47.5241 4.61513 47.4187 4.13403C47.3133 3.64699 47.1318 3.23122 46.8742 2.88673C46.6165 2.53629 46.2652 2.26902 45.8261 2.08489C45.3869 1.90076 44.8307 1.80573 44.1574 1.80573H42.0554V1.81167Z" fill="white"/>
<path d="M62.3352 15.4666C62.3352 17.1772 61.9605 18.4779 61.2052 19.3629C60.4499 20.2479 59.3081 20.6934 57.7799 20.6934C56.2517 20.6934 55.1159 20.2776 54.384 19.4401C53.6462 18.6027 53.2773 17.4385 53.2773 15.9358V5.25062C53.2773 4.53194 53.3535 3.84889 53.5057 3.20742C53.6579 2.56596 53.9097 2.00764 54.2669 1.52654C54.6182 1.05138 55.0866 0.677186 55.6721 0.403968C56.2576 0.13075 56.9661 -0.00585938 57.8092 -0.00585938C58.6699 -0.00585938 59.3901 0.112931 59.9756 0.356452C60.5611 0.599972 61.0237 0.950404 61.3691 1.40775C61.7146 1.86509 61.9605 2.41153 62.1127 3.04112C62.265 3.67071 62.3411 4.37751 62.3411 5.15559V15.4666H62.3352ZM60.5787 4.90019C60.5787 4.47254 60.5318 4.06272 60.4382 3.67665C60.3445 3.29058 60.1923 2.94015 59.9815 2.64317C59.7707 2.34025 59.4896 2.09673 59.1383 1.91261C58.787 1.72848 58.3537 1.63345 57.8385 1.63345C57.2823 1.63345 56.8256 1.75224 56.4625 1.99576C56.0995 2.23928 55.8126 2.54814 55.6018 2.91639C55.391 3.28464 55.2447 3.68853 55.1568 4.12805C55.069 4.56758 55.028 4.9774 55.028 5.36941V15.9596C55.028 16.3516 55.0807 16.7258 55.1861 17.1C55.2915 17.4682 55.4555 17.8008 55.6721 18.0919C55.8887 18.3829 56.1756 18.6146 56.5328 18.7927C56.8841 18.965 57.3115 19.0541 57.8034 19.0541C58.8163 19.0541 59.5306 18.7215 59.9522 18.0622C60.3738 17.4029 60.5845 16.6011 60.5845 15.6685V4.90019H60.5787Z" fill="white"/>
<path d="M70.6651 0.172363C71.6663 0.172363 72.4977 0.308972 73.1594 0.582191C73.821 0.855409 74.3421 1.24742 74.7168 1.76416C75.0916 2.28089 75.355 2.90454 75.5073 3.62917C75.6595 4.35973 75.7356 5.17344 75.7356 6.06437C75.7356 6.91966 75.6595 7.71556 75.5073 8.458C75.355 9.20044 75.0857 9.83597 74.6993 10.3705C74.3128 10.9051 73.78 11.3268 73.095 11.6238C72.4099 11.9267 71.5492 12.0752 70.5128 12.0752H68.405V20.4796H66.6484V0.172363H70.6651ZM68.405 10.4477H70.4192C71.1452 10.4477 71.7424 10.3468 72.205 10.1389C72.6675 9.931 73.0306 9.63997 73.2999 9.25984C73.5692 8.87971 73.7507 8.42236 73.8444 7.88187C73.9381 7.34731 73.9908 6.75336 73.9908 6.11189C73.9908 5.50606 73.9498 4.9418 73.862 4.41318C73.7742 3.88457 73.6044 3.43316 73.3467 3.05303C73.0891 2.6729 72.7261 2.36999 72.2694 2.14429C71.8127 1.91858 71.2155 1.80573 70.4836 1.80573H68.4108V10.4477H68.405Z" fill="white"/>
<path d="M88.2219 15.4666C88.2219 17.1772 87.8472 18.4779 87.0919 19.3629C86.3366 20.2479 85.1948 20.6934 83.6667 20.6934C82.1385 20.6934 81.0026 20.2776 80.2707 19.4401C79.5329 18.6027 79.1641 17.4385 79.1641 15.9358V5.25062C79.1641 4.53194 79.2402 3.84889 79.3924 3.20742C79.5446 2.56596 79.7964 2.00764 80.1536 1.52654C80.5049 1.05138 80.9733 0.677186 81.5588 0.403968C82.1443 0.13075 82.8528 -0.00585938 83.6959 -0.00585938C84.5566 -0.00585938 85.2768 0.112931 85.8623 0.356452C86.4478 0.599972 86.9104 0.950404 87.2558 1.40775C87.6013 1.86509 87.8472 2.41153 87.9994 3.04112C88.1517 3.67071 88.2278 4.37751 88.2278 5.15559V15.4666H88.2219ZM86.4713 4.90019C86.4713 4.47254 86.4244 4.06272 86.3307 3.67665C86.2371 3.29058 86.0848 2.94015 85.874 2.64317C85.6632 2.34025 85.3822 2.09673 85.0309 1.91261C84.6796 1.72848 84.2463 1.63345 83.7311 1.63345C83.1748 1.63345 82.7181 1.75224 82.3551 1.99576C81.9921 2.23928 81.7052 2.54814 81.4944 2.91639C81.2836 3.28464 81.1372 3.68853 81.0494 4.12805C80.9616 4.56758 80.9206 4.9774 80.9206 5.36941V15.9596C80.9206 16.3516 80.9733 16.7258 81.0787 17.1C81.1841 17.4682 81.348 17.8008 81.5647 18.0919C81.7813 18.3829 82.0682 18.6146 82.4254 18.7927C82.7767 18.965 83.2041 19.0541 83.6959 19.0541C84.7089 19.0541 85.4232 18.7215 85.8448 18.0622C86.2663 17.4029 86.4771 16.6011 86.4771 15.6685V4.90019H86.4713Z" fill="white"/>
<path d="M92.5352 20.4855V0.172363H94.2917V18.8462H100.504V20.4796H92.5352V20.4855Z" fill="white"/>
<path d="M103.871 20.4855V0.172363H105.686V20.4855H103.871Z" fill="white"/>
<path d="M119.001 15.0567C119.001 15.912 118.925 16.6841 118.773 17.379C118.621 18.068 118.363 18.656 118 19.1431C117.637 19.6301 117.157 20.0103 116.565 20.2835C115.974 20.5567 115.248 20.6933 114.387 20.6933C113.585 20.6933 112.894 20.5745 112.32 20.3369C111.747 20.0994 111.272 19.7786 110.904 19.3747C110.529 18.9708 110.254 18.4957 110.072 17.9492C109.891 17.4028 109.797 16.8089 109.797 16.1674L111.553 15.7873C111.553 16.1971 111.6 16.5891 111.7 16.9692C111.793 17.3494 111.957 17.682 112.18 17.9789C112.402 18.27 112.689 18.5016 113.046 18.6798C113.404 18.8521 113.849 18.9411 114.393 18.9411C115.049 18.9411 115.564 18.8342 115.939 18.6204C116.314 18.4066 116.601 18.1274 116.794 17.777C116.987 17.4266 117.11 17.0167 117.169 16.5535C117.227 16.0902 117.256 15.5913 117.256 15.0686C117.256 14.4271 117.227 13.8985 117.169 13.4827C117.11 13.067 116.975 12.7046 116.765 12.4077C116.554 12.1048 116.249 11.8315 115.857 11.5761C115.465 11.3207 114.932 11.0535 114.259 10.7624C113.298 10.3348 112.537 9.91901 111.969 9.50918C111.401 9.09935 110.974 8.67765 110.675 8.24406C110.377 7.80454 110.183 7.34125 110.084 6.84827C109.99 6.35529 109.937 5.81479 109.937 5.23272C109.937 4.47246 110.031 3.77754 110.213 3.13607C110.394 2.4946 110.675 1.94816 111.056 1.49082C111.436 1.03348 111.916 0.677106 112.49 0.415767C113.064 0.13067 113.743 0 114.528 0C115.389 0 116.103 0.13067 116.677 0.392009C117.25 0.653348 117.707 0.99784 118.053 1.42549C118.398 1.85313 118.638 2.32829 118.785 2.83909C118.925 3.35583 119.001 3.85475 119.001 4.34179L117.245 4.78132C117.245 3.86663 117.04 3.12419 116.624 2.54806C116.208 1.97192 115.482 1.68682 114.44 1.68682C113.86 1.68682 113.392 1.79968 113.035 2.01944C112.678 2.24514 112.397 2.5243 112.197 2.86285C111.993 3.2014 111.858 3.57559 111.793 3.98542C111.723 4.39525 111.694 4.7932 111.694 5.17927C111.694 5.62473 111.735 6.02268 111.811 6.37311C111.887 6.72354 112.045 7.05616 112.285 7.36501C112.525 7.67387 112.877 7.97678 113.333 8.26782C113.796 8.55885 114.417 8.87365 115.201 9.20032C116.062 9.55076 116.747 9.91307 117.245 10.2932C117.742 10.6733 118.123 11.0891 118.381 11.5464C118.638 12.0038 118.808 12.5146 118.884 13.0788C118.96 13.6668 119.001 14.3202 119.001 15.0567Z" fill="white"/>
<path d="M50.055 30.1368C50.1545 30.1962 50.2482 30.2497 50.3477 30.2972C50.4472 30.3447 50.5409 30.3982 50.6405 30.4576C50.5234 30.7011 50.3536 30.8912 50.1311 31.0278C49.9086 31.1644 49.6392 31.2357 49.3289 31.2357C49.0069 31.2357 48.7434 31.1822 48.5326 31.0693C48.3277 30.9565 48.1637 30.8021 48.0408 30.6001C47.9178 30.3982 47.8359 30.1547 47.789 29.8696C47.7422 29.5845 47.7188 29.2697 47.7188 28.9252C47.7188 28.2778 47.8476 27.761 48.1052 27.375C48.3628 26.9889 48.7668 26.7988 49.3231 26.7988C49.6334 26.7988 49.8969 26.8701 50.1194 27.0126C50.3419 27.1552 50.5116 27.3512 50.6229 27.5947L50.055 27.9511C49.9905 27.7967 49.8969 27.6838 49.768 27.5947C49.6392 27.5116 49.4929 27.47 49.3289 27.47C49.1415 27.47 48.9835 27.5056 48.8605 27.5828C48.7375 27.6601 48.6439 27.761 48.5795 27.8917C48.515 28.0224 48.4682 28.1768 48.4448 28.355C48.4214 28.5332 48.4097 28.7292 48.4097 28.9371C48.4097 29.1449 48.4214 29.3528 48.4448 29.5488C48.4682 29.7448 48.515 29.9171 48.5795 30.0715C48.6439 30.2259 48.7375 30.3447 48.8546 30.4338C48.9718 30.5229 49.124 30.5704 49.3172 30.5704C49.487 30.5704 49.6392 30.5229 49.7622 30.4338C49.9027 30.3566 49.9964 30.2497 50.055 30.1368Z" fill="#4EAB96"/>
<path d="M53.1278 26.7988C53.4674 26.7988 53.7367 26.8701 53.9299 27.0067C54.1231 27.1433 54.2812 27.3156 54.3983 27.5175C54.4393 27.5888 54.4745 27.6779 54.5037 27.7907C54.533 27.9036 54.5564 28.0283 54.574 28.1649C54.5916 28.3015 54.6033 28.4441 54.615 28.5926C54.6208 28.7411 54.6267 28.8836 54.6267 29.0143C54.6267 29.0974 54.6208 29.1925 54.6208 29.3112C54.615 29.43 54.6033 29.5488 54.5916 29.6795C54.5799 29.8102 54.5623 29.929 54.5447 30.0477C54.5272 30.1665 54.5096 30.2556 54.4862 30.3269C54.4335 30.4992 54.3574 30.6417 54.2578 30.7546C54.1583 30.8733 54.0412 30.9624 53.9124 31.0337C53.7836 31.105 53.643 31.1525 53.4967 31.1881C53.3503 31.2178 53.198 31.2357 53.0458 31.2357C52.7179 31.2357 52.4486 31.1644 52.2378 31.0278C52.027 30.8852 51.8689 30.707 51.7694 30.4873C51.6933 30.3269 51.6406 30.119 51.6113 29.8636C51.582 29.6023 51.5703 29.3291 51.5703 29.044C51.5703 28.7708 51.582 28.5094 51.6113 28.254C51.6347 28.0046 51.6816 27.7967 51.746 27.6422C51.8631 27.3809 52.0387 27.173 52.2729 27.0186C52.4896 26.876 52.7823 26.7988 53.1278 26.7988ZM53.1161 27.4403C52.9521 27.4403 52.7999 27.4819 52.6711 27.565C52.5423 27.6482 52.4427 27.767 52.3783 27.9333C52.3373 28.0461 52.3081 28.2006 52.2905 28.4084C52.2729 28.6163 52.2612 28.8539 52.2612 29.1271C52.2612 29.3172 52.2671 29.5013 52.2729 29.6676C52.2788 29.8339 52.3081 29.9765 52.3549 30.0953C52.4193 30.2497 52.5071 30.3744 52.6301 30.4635C52.7531 30.5526 52.8994 30.5942 53.0868 30.5942C53.2624 30.5942 53.4205 30.5526 53.5552 30.4635C53.6899 30.3744 53.7894 30.2378 53.8538 30.0418C53.8831 29.9587 53.9007 29.822 53.9124 29.626C53.9241 29.43 53.9299 29.2162 53.9299 28.9727C53.9299 28.7708 53.9241 28.5747 53.9124 28.3906C53.9007 28.2065 53.8772 28.0639 53.8421 27.957C53.7777 27.7848 53.684 27.6541 53.5611 27.565C53.4264 27.4819 53.28 27.4403 53.1161 27.4403Z" fill="#4EAB96"/>
<path d="M58.0823 31.1881V28.3609C58.0823 28.0996 58.0179 27.8917 57.8833 27.7432C57.7545 27.5947 57.5554 27.5175 57.2978 27.5175C57.0636 27.5175 56.8762 27.5947 56.7298 27.7492C56.5893 27.9036 56.5132 28.1115 56.5132 28.3728V31.1822H55.8164V26.8463H56.5249V27.3274H56.5483C56.6713 27.1611 56.8176 27.0305 56.9933 26.9354C57.1689 26.8463 57.3622 26.7988 57.5671 26.7988C57.7369 26.7988 57.9008 26.8285 58.0414 26.8879C58.1877 26.9473 58.3107 27.0364 58.4219 27.1493C58.5273 27.2621 58.6152 27.3987 58.6737 27.5591C58.7381 27.7195 58.7674 27.9036 58.7674 28.1055V31.1703H58.0823V31.1881Z" fill="#4EAB96"/>
<path d="M60.4195 29.9946C60.5132 30.1787 60.6362 30.3272 60.7884 30.4341C60.9406 30.5411 61.1338 30.5945 61.3622 30.5945C61.6023 30.5945 61.7896 30.5411 61.9301 30.4401C62.0648 30.3391 62.1351 30.1728 62.1351 29.9471C62.1351 29.8343 62.1175 29.7452 62.0765 29.6739C62.0355 29.6026 61.9828 29.5432 61.9067 29.5016C61.8365 29.4541 61.7486 29.4185 61.655 29.3829C61.5554 29.3532 61.45 29.3175 61.3329 29.2819C61.128 29.2284 60.9406 29.169 60.7708 29.1037C60.601 29.0384 60.4605 28.9552 60.3375 28.8602C60.2146 28.7651 60.1268 28.6523 60.0624 28.5216C59.9979 28.391 59.9687 28.2306 59.9687 28.0465C59.9687 27.6604 60.0916 27.3575 60.3375 27.1377C60.5835 26.9179 60.9231 26.811 61.3563 26.811C61.7428 26.811 62.0414 26.8823 62.258 27.0308C62.4747 27.1793 62.6328 27.3872 62.7264 27.6485L62.1819 27.9871C62.018 27.6366 61.7369 27.4644 61.3505 27.4644C61.0929 27.4644 60.9113 27.5238 60.8118 27.6426C60.7123 27.7614 60.6596 27.898 60.6596 28.0465C60.6596 28.1474 60.683 28.2246 60.7357 28.29C60.7884 28.3553 60.8587 28.4088 60.9465 28.4503C61.0343 28.4919 61.1397 28.5335 61.2568 28.5691C61.3739 28.6048 61.4969 28.6404 61.6257 28.676C61.8248 28.7236 62.0004 28.777 62.1526 28.8483C62.3049 28.9136 62.4278 28.9968 62.5274 29.1037C62.6269 29.2047 62.703 29.3235 62.7499 29.466C62.7967 29.6086 62.826 29.7749 62.826 29.9709C62.826 30.3629 62.6972 30.6717 62.4337 30.9034C62.1702 31.135 61.8072 31.2538 61.3446 31.2538C60.9758 31.2538 60.6713 31.1766 60.4195 31.0162C60.1736 30.8559 59.9804 30.6302 59.8516 30.3332L60.4195 29.9946Z" fill="#4EAB96"/>
<path d="M66.2074 31.1882V30.725H66.1839C66.061 30.8972 65.9146 31.0279 65.7331 31.117C65.5516 31.2001 65.3584 31.2417 65.1593 31.2417C64.9895 31.2417 64.8255 31.212 64.6733 31.1526C64.5211 31.0932 64.3981 31.0041 64.2869 30.8913C64.1815 30.7784 64.0936 30.6418 64.0351 30.4814C63.9707 30.3211 63.9414 30.1369 63.9414 29.935V26.8702H64.6382V29.6974C64.6382 29.9588 64.7084 30.1666 64.849 30.3211C64.9895 30.4755 65.1827 30.5527 65.4228 30.5527C65.657 30.5527 65.8502 30.4755 65.9907 30.3151C66.1371 30.1548 66.2074 29.9469 66.2074 29.6737V26.8643H66.9041V31.1882H66.2074V31.1882Z" fill="#4EAB96"/>
<path d="M69.3901 31.2121C69.0505 31.2121 68.7811 31.1409 68.5879 30.9924C68.3947 30.8439 68.2952 30.5766 68.301 30.1787V24.8271H68.9978V30.0599C68.9978 30.2262 69.0271 30.345 69.0915 30.4281C69.1559 30.5113 69.2671 30.5529 69.4252 30.5529H69.5716V31.2121H69.3901V31.2121Z" fill="#4EAB96"/>
<path d="M71.7782 31.1882C71.4503 31.1882 71.2044 31.0932 71.0405 30.9031C70.8765 30.7131 70.7946 30.4814 70.7946 30.1963V27.4285H70.3203V26.8524H70.7946V25.7417H71.4913V26.8524H72.0944V27.4285H71.4913V29.9885C71.4913 30.1666 71.5265 30.3033 71.5967 30.3923C71.667 30.4814 71.7782 30.529 71.9304 30.529H72.1646V31.1882H71.7782V31.1882Z" fill="#4EAB96"/>
<path d="M73.3125 25.8015V25.0947H74.0093V25.8015H73.3125ZM73.3125 31.1887V26.8528H74.0093V31.1887H73.3125Z" fill="#4EAB96"/>
<path d="M77.6019 31.1881V28.3609C77.6019 28.0996 77.5374 27.8917 77.4028 27.7432C77.274 27.5947 77.0749 27.5175 76.8173 27.5175C76.5831 27.5175 76.3957 27.5947 76.2493 27.7492C76.1088 27.9036 76.0327 28.1115 76.0327 28.3728V31.1822H75.3359V26.8463H76.0444V27.3274H76.0678C76.1908 27.1611 76.3372 27.0305 76.5128 26.9354C76.6885 26.8463 76.8817 26.7988 77.0866 26.7988C77.2564 26.7988 77.4203 26.8285 77.5609 26.8879C77.7072 26.9473 77.8302 27.0364 77.9414 27.1493C78.0468 27.2621 78.1347 27.3987 78.1932 27.5591C78.2576 27.7195 78.2869 27.9036 78.2869 28.1055V31.1703H77.6019V31.1881Z" fill="#4EAB96"/>
<path d="M82.4646 31.2178C82.4646 31.7523 82.3417 32.1859 82.0899 32.5066C81.8381 32.8333 81.4458 32.9937 80.9013 32.9937C80.6261 32.9937 80.3744 32.9283 80.1519 32.7977C79.9294 32.667 79.7596 32.4769 79.6425 32.2334L80.2221 31.8949C80.2865 32.0137 80.3802 32.1146 80.4973 32.2037C80.6203 32.2928 80.7608 32.3403 80.9306 32.3403C81.2233 32.3403 81.4341 32.2512 81.5688 32.079C81.7035 31.9008 81.7679 31.6573 81.7679 31.3366V30.7307H81.7503C81.6156 30.9089 81.4634 31.0396 81.2936 31.1168C81.1238 31.194 80.9482 31.2296 80.7784 31.2296C80.4856 31.2296 80.2514 31.1643 80.0816 31.0396C79.9118 30.9148 79.7771 30.7485 79.6952 30.5466C79.6073 30.3446 79.5546 30.113 79.5254 29.8576C79.5019 29.5963 79.4844 29.329 79.4844 29.0558C79.4844 28.7766 79.4961 28.4975 79.5254 28.2302C79.5488 27.957 79.6073 27.7194 79.6952 27.5056C79.783 27.2917 79.9118 27.1195 80.0816 26.9948C80.2514 26.8641 80.4856 26.8047 80.7784 26.8047C80.9774 26.8047 81.1589 26.8403 81.3229 26.9116C81.4868 26.9829 81.6274 27.1017 81.7562 27.268C81.762 27.268 81.762 27.268 81.762 27.262C81.762 27.262 81.762 27.2561 81.7679 27.2561V26.8522H82.4646V31.2178V31.2178ZM80.9599 30.5288C81.1297 30.5288 81.2702 30.4872 81.3756 30.41C81.481 30.3328 81.5629 30.2259 81.6215 30.0952C81.68 29.9645 81.7152 29.816 81.7386 29.6497C81.7562 29.4834 81.7679 29.3112 81.7679 29.127C81.7679 28.9607 81.7679 28.7766 81.762 28.5865C81.7562 28.3965 81.7327 28.2183 81.6859 28.052C81.6391 27.8916 81.5629 27.755 81.4517 27.6422C81.3404 27.5353 81.1824 27.4818 80.9774 27.4818C80.7959 27.4818 80.6495 27.5234 80.5442 27.6065C80.4388 27.6897 80.3568 27.7966 80.3041 27.9391C80.2514 28.0817 80.2163 28.2421 80.2046 28.4321C80.1928 28.6162 80.1811 28.8182 80.1811 29.0261C80.1811 29.2577 80.187 29.4715 80.2046 29.6557C80.2221 29.8398 80.2572 30.0002 80.3158 30.1308C80.3744 30.2615 80.4505 30.3565 80.55 30.4278C80.6613 30.4931 80.7959 30.5288 80.9599 30.5288Z" fill="#4EAB96"/>
<path d="M88.8261 30.4041C88.709 30.6595 88.5392 30.8615 88.3108 31.01C88.0825 31.1584 87.8248 31.2357 87.5379 31.2357C87.251 31.2357 87.0051 31.1941 86.806 31.1109C86.6069 31.0278 86.4371 30.8971 86.3083 30.7189C86.1795 30.5407 86.0858 30.3091 86.0214 30.0299C85.957 29.7508 85.9336 29.4122 85.9336 29.0143C85.9336 28.7411 85.957 28.4678 85.998 28.2065C86.039 27.9392 86.121 27.7016 86.2322 27.4938C86.3435 27.2859 86.5015 27.1136 86.6948 26.9889C86.888 26.8582 87.1398 26.7988 87.4501 26.7988C87.9361 26.7988 88.3049 26.9533 88.5626 27.2681C88.8202 27.5828 88.949 28.0105 88.949 28.5569V29.2281H86.6362C86.6362 29.4182 86.6479 29.6023 86.6714 29.7686C86.6948 29.9349 86.7358 30.0774 86.8002 30.2022C86.8646 30.3269 86.9524 30.4219 87.0695 30.4932C87.1866 30.5645 87.333 30.6001 87.5204 30.6001C87.6784 30.6001 87.819 30.5526 87.9478 30.4516C88.0766 30.3507 88.182 30.2378 88.264 30.1012L88.8261 30.4041ZM88.2523 28.6638C88.2523 28.2659 88.182 27.963 88.0473 27.761C87.9127 27.5591 87.7136 27.4581 87.4559 27.4581C87.1573 27.4581 86.9524 27.565 86.8411 27.7848C86.7299 28.0046 86.6655 28.2956 86.6538 28.6638H88.2523Z" fill="#4EAB96"/>
<path d="M92.3695 31.1881V28.3609C92.3695 28.0996 92.3051 27.8917 92.1704 27.7432C92.0416 27.5947 91.8425 27.5175 91.5849 27.5175C91.3507 27.5175 91.1633 27.5947 91.0169 27.7492C90.8764 27.9036 90.8003 28.1115 90.8003 28.3728V31.1822H90.1094V26.8463H90.8178V27.3274H90.8413C90.9642 27.1611 91.1106 27.0305 91.2863 26.9354C91.4619 26.8463 91.6551 26.7988 91.8601 26.7988C92.0299 26.7988 92.1938 26.8285 92.3343 26.8879C92.4807 26.9473 92.6037 27.0364 92.7149 27.1493C92.8203 27.2621 92.9081 27.3987 92.9667 27.5591C93.0311 27.7195 93.0604 27.9036 93.0604 28.1055V31.1703H92.3695V31.1881Z" fill="#4EAB96"/>
<path d="M97.2224 31.2178C97.2224 31.7523 97.0995 32.1859 96.8477 32.5066C96.5959 32.8333 96.2037 32.9937 95.6591 32.9937C95.3839 32.9937 95.1322 32.9283 94.9097 32.7977C94.6872 32.667 94.5174 32.4769 94.4003 32.2334L94.9799 31.8949C95.0443 32.0137 95.138 32.1146 95.2551 32.2037C95.3781 32.2928 95.5186 32.3403 95.6884 32.3403C95.9812 32.3403 96.1919 32.2512 96.3266 32.079C96.4613 31.9008 96.5257 31.6573 96.5257 31.3366V30.7307H96.5081C96.3734 30.9089 96.2212 31.0396 96.0514 31.1168C95.8816 31.194 95.706 31.2296 95.5362 31.2296C95.2434 31.2296 95.0092 31.1643 94.8394 31.0396C94.6696 30.9148 94.5349 30.7485 94.453 30.5466C94.3651 30.3446 94.3125 30.113 94.2832 29.8576C94.2598 29.5963 94.2422 29.329 94.2422 29.0558C94.2422 28.7766 94.2539 28.4975 94.2832 28.2302C94.3066 27.957 94.3651 27.7194 94.453 27.5056C94.5408 27.2917 94.6696 27.1195 94.8394 26.9948C95.0092 26.8641 95.2434 26.8047 95.5362 26.8047C95.7352 26.8047 95.9167 26.8403 96.0807 26.9116C96.2446 26.9829 96.3852 27.1017 96.514 27.268C96.5198 27.268 96.5198 27.268 96.5198 27.262C96.5198 27.262 96.5198 27.2561 96.5257 27.2561V26.8522H97.2224V31.2178V31.2178ZM95.7235 30.5288C95.8933 30.5288 96.0338 30.4872 96.1392 30.41C96.2446 30.3328 96.3266 30.2259 96.3852 30.0952C96.4437 29.9645 96.4788 29.816 96.5023 29.6497C96.5198 29.4834 96.5315 29.3112 96.5315 29.127C96.5315 28.9607 96.5315 28.7766 96.5257 28.5865C96.5198 28.3965 96.4964 28.2183 96.4496 28.052C96.4027 27.8916 96.3266 27.755 96.2154 27.6422C96.1041 27.5353 95.946 27.4818 95.7411 27.4818C95.5596 27.4818 95.4132 27.5234 95.3078 27.6065C95.2024 27.6897 95.1205 27.7966 95.0678 27.9391C95.0151 28.0817 94.9799 28.2421 94.9682 28.4321C94.9565 28.6162 94.9448 28.8182 94.9448 29.0261C94.9448 29.2577 94.9507 29.4715 94.9682 29.6557C94.9858 29.8398 95.0209 30.0002 95.0795 30.1308C95.138 30.2615 95.2141 30.3565 95.3137 30.4278C95.4249 30.4931 95.5596 30.5288 95.7235 30.5288Z" fill="#4EAB96"/>
<path d="M98.6406 25.8015V25.0947H99.3374V25.8015H98.6406ZM98.6406 31.1887V26.8528H99.3374V31.1887H98.6406Z" fill="#4EAB96"/>
<path d="M102.934 31.1881V28.3609C102.934 28.0996 102.869 27.8917 102.735 27.7432C102.606 27.5947 102.407 27.5175 102.149 27.5175C101.915 27.5175 101.728 27.5947 101.581 27.7492C101.441 27.9036 101.365 28.1115 101.365 28.3728V31.1822H100.668V26.8463H101.376V27.3274H101.4C101.523 27.1611 101.669 27.0305 101.845 26.9354C102.021 26.8463 102.214 26.7988 102.419 26.7988C102.588 26.7988 102.752 26.8285 102.893 26.8879C103.039 26.9473 103.162 27.0364 103.274 27.1493C103.379 27.2621 103.467 27.3987 103.525 27.5591C103.59 27.7195 103.619 27.9036 103.619 28.1055V31.1703H102.934V31.1881Z" fill="#4EAB96"/>
<path d="M107.674 30.4041C107.557 30.6595 107.387 30.8615 107.158 31.01C106.93 31.1584 106.672 31.2357 106.386 31.2357C106.099 31.2357 105.853 31.1941 105.654 31.1109C105.455 31.0278 105.285 30.8971 105.156 30.7189C105.027 30.5407 104.933 30.3091 104.869 30.0299C104.805 29.7508 104.781 29.4122 104.781 29.0143C104.781 28.7411 104.805 28.4678 104.846 28.2065C104.887 27.9392 104.969 27.7016 105.08 27.4938C105.191 27.2859 105.349 27.1136 105.542 26.9889C105.736 26.8582 105.987 26.7988 106.298 26.7988C106.784 26.7988 107.153 26.9533 107.41 27.2681C107.668 27.5828 107.797 28.0105 107.797 28.5569V29.2281H105.484C105.484 29.4182 105.496 29.6023 105.519 29.7686C105.542 29.9349 105.583 30.0774 105.648 30.2022C105.712 30.3269 105.8 30.4219 105.917 30.4932C106.034 30.5645 106.181 30.6001 106.368 30.6001C106.526 30.6001 106.667 30.5526 106.795 30.4516C106.924 30.3507 107.03 30.2378 107.112 30.1012L107.674 30.4041ZM107.1 28.6638C107.1 28.2659 107.03 27.963 106.895 27.761C106.76 27.5591 106.561 27.4581 106.304 27.4581C106.005 27.4581 105.8 27.565 105.689 27.7848C105.578 28.0046 105.513 28.2956 105.501 28.6638H107.1Z" fill="#4EAB96"/>
<path d="M111.767 30.4041C111.65 30.6595 111.481 30.8615 111.252 31.01C111.024 31.1584 110.766 31.2357 110.479 31.2357C110.192 31.2357 109.946 31.1941 109.747 31.1109C109.548 31.0278 109.379 30.8971 109.25 30.7189C109.121 30.5407 109.027 30.3091 108.963 30.0299C108.898 29.7508 108.875 29.4122 108.875 29.0143C108.875 28.7411 108.898 28.4678 108.939 28.2065C108.98 27.9392 109.062 27.7016 109.174 27.4938C109.285 27.2859 109.443 27.1136 109.636 26.9889C109.829 26.8582 110.081 26.7988 110.391 26.7988C110.877 26.7988 111.246 26.9533 111.504 27.2681C111.762 27.5828 111.89 28.0105 111.89 28.5569V29.2281H109.578C109.578 29.4182 109.589 29.6023 109.613 29.7686C109.636 29.9349 109.677 30.0774 109.742 30.2022C109.806 30.3269 109.894 30.4219 110.011 30.4932C110.128 30.5645 110.274 30.6001 110.462 30.6001C110.62 30.6001 110.76 30.5526 110.889 30.4516C111.018 30.3507 111.123 30.2378 111.205 30.1012L111.767 30.4041ZM111.188 28.6638C111.188 28.2659 111.118 27.963 110.983 27.761C110.848 27.5591 110.649 27.4581 110.391 27.4581C110.093 27.4581 109.888 27.565 109.777 27.7848C109.665 28.0046 109.601 28.2956 109.589 28.6638H111.188Z" fill="#4EAB96"/>
<path d="M113.884 27.375C114.019 27.1493 114.165 26.9948 114.335 26.9176C114.499 26.8404 114.698 26.7988 114.932 26.7988C115.096 26.8107 115.231 26.8404 115.319 26.8939L115.161 27.6541C115.02 27.5888 114.88 27.5591 114.739 27.5591C114.476 27.5591 114.259 27.6363 114.101 27.7848C113.937 27.9333 113.861 28.1709 113.861 28.4975V31.1881H113.164V26.8642H113.861V27.3809H113.884V27.375Z" fill="#4EAB96"/>
<path d="M116.56 29.9946C116.654 30.1787 116.777 30.3272 116.929 30.4341C117.081 30.5411 117.274 30.5945 117.503 30.5945C117.743 30.5945 117.93 30.5411 118.071 30.4401C118.205 30.3391 118.276 30.1728 118.276 29.9471C118.276 29.8343 118.258 29.7452 118.217 29.6739C118.176 29.6026 118.123 29.5432 118.047 29.5016C117.977 29.4541 117.889 29.4185 117.796 29.3829C117.696 29.3532 117.591 29.3175 117.474 29.2819C117.269 29.2284 117.081 29.169 116.911 29.1037C116.742 29.0384 116.601 28.9552 116.478 28.8602C116.355 28.7651 116.267 28.6523 116.203 28.5216C116.139 28.391 116.109 28.2306 116.109 28.0465C116.109 27.6604 116.232 27.3575 116.478 27.1377C116.724 26.9179 117.064 26.811 117.497 26.811C117.883 26.811 118.182 26.8823 118.399 27.0308C118.615 27.1793 118.773 27.3872 118.867 27.6485L118.323 27.9871C118.159 27.6366 117.878 27.4644 117.491 27.4644C117.233 27.4644 117.052 27.5238 116.952 27.6426C116.853 27.7614 116.8 27.898 116.8 28.0465C116.8 28.1474 116.824 28.2246 116.876 28.29C116.929 28.3553 116.999 28.4088 117.087 28.4503C117.175 28.4919 117.28 28.5335 117.397 28.5691C117.515 28.6048 117.637 28.6404 117.766 28.676C117.965 28.7236 118.141 28.777 118.293 28.8483C118.446 28.9136 118.568 28.9968 118.668 29.1037C118.768 29.2047 118.844 29.3235 118.89 29.466C118.937 29.6086 118.967 29.7749 118.967 29.9709C118.967 30.3629 118.838 30.6717 118.574 30.9034C118.311 31.135 117.948 31.2538 117.485 31.2538C117.116 31.2538 116.812 31.1766 116.56 31.0162C116.314 30.8559 116.121 30.6302 115.992 30.3332L116.56 29.9946Z" fill="#4EAB96"/>
<path d="M42.4381 27.5181H0V30.4759H42.4381V27.5181Z" fill="#4EAB96"/>
</g>
<defs>
<clipPath id="clip0">
<rect width="119" height="33" fill="white"/>
</clipPath>
</defs>
</svg>
